<?xml version="1.0" standalone="no"?>
<!DOCTYPE svg PUBLIC "-//W3C//DTD SVG 20010904//EN"
 "http://www.w3.org/TR/2001/REC-SVG-20010904/DTD/svg10.dtd">
<svg version="1.0" xmlns="http://www.w3.org/2000/svg"
 width="1080.000000pt" height="1080.000000pt" viewBox="0 0 1080.000000 1080.000000"
 preserveAspectRatio="xMidYMid meet">
<metadata>
Created by potrace 1.14, written by Peter Selinger 2001-2017
</metadata>
<g transform="translate(0.000000,1080.000000) scale(0.100000,-0.100000)"
fill="#000000" stroke="none">
<path d="M6508 10778 c-9 -13 -15 -27 -14 -31 1 -5 -7 -13 -17 -18 -9 -6 -15
-15 -11 -20 3 -5 1 -8 -4 -7 -6 2 -41 -37 -78 -87 -37 -49 -73 -95 -78 -101
-6 -6 -18 -22 -26 -34 -8 -13 -23 -30 -32 -39 -10 -8 -18 -20 -18 -26 0 -6 -9
-16 -20 -23 -11 -7 -20 -19 -20 -27 0 -8 -4 -15 -8 -15 -4 0 -25 -24 -47 -52
-21 -29 -50 -65 -64 -80 -13 -16 -21 -28 -16 -28 5 0 -1 -7 -13 -16 -12 -8
-22 -21 -22 -27 0 -7 -9 -18 -21 -25 -12 -7 -19 -15 -16 -18 2 -2 -13 -24 -34
-47 -22 -23 -39 -48 -39 -54 0 -7 -4 -13 -8 -13 -5 0 -24 -21 -42 -47 -19 -27
-39 -52 -46 -58 -6 -5 -24 -28 -40 -50 -16 -22 -40 -53 -54 -68 -14 -16 -24
-31 -22 -34 2 -2 -5 -12 -15 -21 -11 -9 -32 -35 -49 -57 -16 -22 -37 -49 -48
-60 -10 -11 -25 -31 -35 -45 -9 -14 -27 -37 -39 -52 -13 -14 -23 -29 -22 -33
0 -3 -9 -15 -22 -25 -13 -11 -19 -19 -14 -20 5 0 -3 -10 -18 -21 -15 -12 -25
-23 -23 -26 3 -2 -13 -23 -34 -46 -22 -22 -39 -46 -39 -52 0 -5 -9 -16 -21
-23 -12 -7 -19 -16 -16 -19 3 -2 -2 -12 -11 -22 -10 -9 -31 -35 -48 -56 -95
-119 -130 -165 -144 -185 -8 -12 -24 -32 -35 -45 -35 -40 -72 -90 -73 -98 0
-5 -7 -14 -16 -20 -14 -11 -85 -99 -130 -162 -11 -14 -27 -35 -35 -45 -9 -10
-23 -28 -31 -41 -8 -12 -23 -29 -32 -38 -10 -8 -18 -19 -18 -22 0 -4 -9 -18
-20 -31 -11 -12 -33 -39 -50 -58 -16 -19 -30 -40 -30 -45 0 -6 -9 -16 -21 -23
-12 -7 -18 -16 -15 -19 3 -4 -3 -13 -14 -20 -11 -8 -18 -18 -15 -23 3 -4 -1
-10 -8 -13 -7 -3 -33 -31 -57 -63 -24 -33 -55 -71 -69 -86 -14 -16 -21 -28
-15 -28 5 0 0 -8 -12 -18 -24 -20 -108 -122 -101 -122 3 0 -10 -18 -30 -39
-19 -22 -35 -43 -36 -48 0 -4 -10 -16 -21 -25 -12 -10 -17 -17 -12 -18 5 0 -3
-9 -18 -21 -14 -11 -26 -27 -26 -35 0 -8 -4 -14 -9 -14 -4 0 -21 -19 -37 -42
-16 -24 -37 -49 -46 -56 -10 -7 -18 -19 -18 -26 0 -8 -7 -17 -16 -20 -9 -4
-15 -9 -12 -12 3 -2 -12 -24 -33 -47 -22 -23 -39 -47 -39 -52 0 -6 -9 -16 -20
-23 -11 -7 -20 -16 -20 -21 0 -6 -14 -25 -31 -43 -17 -18 -41 -49 -54 -68 -12
-19 -36 -51 -53 -70 -17 -19 -28 -39 -25 -44 3 -5 1 -6 -5 -2 -7 4 -20 -7 -33
-28 -12 -20 -25 -36 -29 -36 -5 0 -12 -9 -15 -21 -4 -11 -24 -33 -46 -48 -21
-16 -36 -30 -34 -33 2 -2 -5 -4 -15 -5 -11 -1 -22 2 -25 8 -3 5 2 6 12 3 13
-4 15 -3 5 4 -17 11 -15 24 4 35 9 5 22 3 32 -5 15 -11 15 -11 5 3 -10 12 -10
18 0 30 10 12 10 12 -2 2 -22 -19 -36 -16 -20 4 8 10 9 14 2 10 -7 -4 -16 0
-22 10 -10 17 -10 17 -11 1 0 -10 4 -18 10 -18 16 0 7 -24 -15 -37 -11 -7 -14
-12 -7 -13 7 0 10 -5 7 -10 -4 -7 -14 -6 -28 1 -20 9 -20 9 -4 -4 9 -8 17 -17
17 -20 0 -11 -32 0 -41 14 -5 8 -9 10 -9 4 1 -5 7 -19 15 -29 8 -11 15 -15 15
-10 0 6 6 11 13 11 8 0 14 -6 14 -13 0 -7 -4 -11 -8 -8 -4 2 -10 0 -14 -6 -3
-5 -11 -10 -17 -10 -6 0 -8 3 -5 6 7 7 -21 63 -38 77 -5 5 -1 6 11 3 18 -6 21
-2 21 27 0 21 -5 34 -13 34 -9 0 -10 -5 -3 -18 12 -23 11 -29 -1 -29 -5 0 -10
10 -10 23 0 17 -2 19 -9 7 -6 -8 -7 -19 -4 -25 4 -5 2 -7 -2 -2 -13 11 -14 50
-3 65 12 14 42 17 34 3 -3 -5 2 -11 13 -14 16 -4 16 -1 7 19 -6 13 -17 26 -24
29 -7 2 -11 1 -8 -4 3 -4 -6 -13 -20 -20 -30 -13 -45 -14 -24 -1 12 8 12 11
-3 28 -9 10 -14 22 -11 25 4 4 2 12 -3 19 -6 7 -10 26 -9 42 1 15 -4 30 -10
33 -7 3 -10 11 -7 19 3 7 -3 17 -12 20 -13 6 -14 9 -3 16 10 8 9 9 -4 5 -22
-8 -30 3 -15 21 8 11 8 14 0 9 -6 -4 -19 1 -29 10 -16 16 -16 16 -10 -3 4 -15
2 -21 -9 -21 -11 0 -13 8 -10 29 3 16 1 28 -5 28 -6 0 -9 -4 -6 -9 3 -5 -5 -8
-19 -8 -15 0 -22 4 -18 11 3 6 2 8 -2 3 -5 -4 -17 0 -27 10 -10 9 -18 13 -18
8 0 -4 8 -15 18 -24 19 -16 26 -51 10 -51 -5 0 -6 -5 -2 -11 4 -7 -1 -9 -12
-7 -11 2 -18 10 -16 17 1 7 -2 10 -7 7 -5 -4 -11 0 -14 6 -3 10 -8 10 -18 -1
-12 -12 -12 -13 0 -6 10 6 12 4 6 -5 -5 -9 -4 -11 3 -6 8 5 10 1 5 -10 -5 -14
-3 -16 11 -11 10 4 15 3 11 -3 -8 -12 -38 -8 -57 8 -8 6 -19 8 -23 4 -5 -4 -5
-1 -1 6 6 11 12 10 27 -4 24 -21 24 -7 1 24 -16 21 -19 21 -37 7 -11 -9 -14
-14 -8 -10 8 4 11 1 8 -7 -3 -8 -14 -14 -25 -14 -14 0 -16 4 -9 12 8 9 5 11
-10 7 -13 -3 -21 -1 -21 6 0 7 4 10 8 7 5 -3 9 1 9 9 0 11 -4 12 -14 4 -7 -6
-20 -9 -28 -5 -9 3 -13 2 -10 -4 3 -6 -1 -10 -10 -10 -10 0 -13 5 -9 13 6 9 5
9 -8 0 -8 -7 -19 -9 -23 -5 -5 4 -6 3 -3 -3 3 -5 -5 -18 -18 -28 -14 -10 -23
-15 -22 -10 2 4 -1 8 -7 8 -5 0 -9 -3 -8 -7 2 -5 -2 -8 -8 -8 -6 0 -9 7 -5 15
7 20 -2 19 -22 -3 -10 -10 -13 -12 -8 -5 6 10 4 12 -8 7 -9 -3 -24 0 -33 7
-14 12 -16 12 -8 0 6 -11 4 -13 -8 -8 -11 4 -14 2 -11 -7 3 -8 13 -13 22 -11
9 1 11 0 5 -2 -7 -3 -13 -10 -13 -16 0 -7 -5 -4 -11 6 -6 9 -14 15 -20 12 -5
-4 -9 -2 -9 2 0 5 -9 9 -21 10 -12 1 -19 -3 -16 -10 2 -7 11 -11 20 -9 12 2
15 -2 11 -15 -5 -16 -4 -16 10 1 13 17 16 17 16 4 0 -24 -22 -27 -50 -8 -45
30 -50 32 -44 16 3 -9 9 -14 12 -13 4 1 8 -2 9 -8 1 -5 -6 -10 -17 -9 -14 0
-17 -3 -10 -15 7 -13 2 -16 -24 -15 -18 1 -37 4 -43 7 -5 3 -10 0 -10 -8 0 -8
4 -12 9 -9 4 3 8 -2 8 -11 0 -10 -5 -13 -12 -9 -8 5 -9 2 -5 -9 3 -9 3 -16 -1
-16 -4 1 -18 1 -31 0 -18 -1 -22 -5 -18 -20 3 -15 1 -18 -11 -14 -10 4 -13 2
-8 -5 5 -8 2 -10 -9 -5 -10 3 -21 0 -26 -8 -6 -10 -9 -11 -9 -1 0 7 11 18 25
24 14 6 25 15 25 19 0 5 -13 0 -30 -9 -16 -9 -30 -23 -30 -29 0 -7 -4 -13 -10
-13 -5 0 -7 -8 -3 -17 5 -15 3 -14 -10 2 -16 20 -16 20 -17 -4 0 -20 -2 -22
-15 -11 -13 11 -14 10 -9 -5 5 -11 3 -16 -2 -12 -6 3 -17 -3 -24 -14 -16 -21
-35 -27 -24 -6 3 6 -6 0 -20 -16 -15 -15 -24 -32 -21 -37 4 -6 3 -10 -2 -9
-20 3 -34 -2 -28 -11 3 -5 -1 -10 -10 -10 -9 0 -13 -5 -10 -10 3 -6 -2 -13
-12 -17 -23 -9 -37 -23 -46 -46 -4 -10 -11 -15 -17 -12 -5 3 -10 -1 -10 -10 0
-9 -4 -13 -10 -10 -6 4 -7 -1 -3 -11 3 -10 2 -15 -3 -12 -11 7 -35 -17 -26
-27 4 -4 2 -6 -3 -5 -21 5 -36 0 -30 -10 3 -5 -3 -18 -14 -29 -11 -11 -17 -22
-14 -25 4 -3 1 -6 -5 -6 -6 0 -17 -12 -25 -27 -7 -16 -18 -27 -25 -26 -7 2 -9
-4 -5 -14 4 -11 3 -14 -5 -9 -12 7 -16 -5 -13 -31 1 -7 -5 -13 -13 -13 -10 0
-13 -6 -10 -15 4 -8 1 -15 -6 -15 -6 0 -8 -4 -5 -10 3 -6 -1 -10 -10 -10 -9 0
-13 -5 -10 -10 7 -12 -16 -70 -28 -70 -5 0 -5 -4 -2 -10 3 -5 1 -10 -4 -10 -6
0 -10 -6 -8 -12 1 -7 -4 -12 -11 -10 -10 2 -10 -2 -2 -18 8 -15 8 -20 -1 -20
-6 0 -9 -7 -6 -15 4 -8 1 -17 -5 -21 -7 -5 -8 -2 -3 6 5 8 4 11 -3 7 -5 -4 -8
-16 -5 -27 3 -11 -1 -28 -8 -37 -12 -15 -12 -16 1 -8 12 7 13 6 3 -7 -7 -8
-10 -18 -6 -21 3 -4 1 -7 -4 -7 -6 0 -10 -11 -8 -25 1 -14 -2 -25 -8 -25 -5 0
-3 -8 4 -17 8 -9 9 -14 3 -10 -7 4 -14 -3 -17 -18 -2 -14 0 -28 5 -31 6 -4 5
-10 -3 -15 -11 -7 -9 -13 11 -28 19 -15 24 -29 25 -65 1 -28 8 -53 19 -65 11
-13 14 -21 6 -26 -12 -8 14 -58 47 -91 13 -11 20 -24 16 -28 -4 -4 -1 -11 7
-16 12 -8 12 -10 1 -10 -11 0 -11 -3 -1 -15 7 -9 8 -15 2 -15 -11 0 -10 -25 1
-36 3 -4 2 -15 -4 -25 -7 -14 -6 -19 3 -19 9 0 9 -3 -2 -10 -10 -6 -11 -10 -3
-10 9 0 10 -7 3 -25 -6 -15 -6 -26 0 -30 6 -4 10 -11 10 -16 0 -6 -5 -7 -11
-3 -8 4 -8 0 0 -15 8 -14 9 -27 2 -38 -6 -12 -4 -24 6 -40 13 -19 13 -23 2
-23 -9 -1 -8 -4 4 -11 13 -8 15 -14 7 -29 -7 -13 -6 -20 3 -23 9 -4 9 -6 -1
-6 -8 -1 -10 -6 -6 -13 5 -9 2 -8 -9 1 -16 12 -17 12 -11 -5 4 -10 4 -16 0
-12 -10 8 -46 -22 -46 -39 0 -7 -5 -13 -11 -13 -6 0 -9 -7 -5 -15 3 -8 0 -15
-7 -15 -8 0 -6 -4 3 -10 14 -9 7 -14 -13 -11 -5 1 -5 -4 0 -11 11 -18 10 -32
-2 -40 -7 -5 -7 -8 0 -8 12 0 13 -40 1 -58 -4 -7 -2 -12 6 -12 9 0 9 -3 -2
-10 -12 -8 -12 -10 -1 -10 9 0 12 -9 9 -29 -2 -17 -1 -28 2 -26 9 5 50 -90 50
-115 0 -12 7 -23 15 -26 17 -7 20 -49 5 -59 -6 -4 -8 -11 -5 -16 4 -5 2 -9 -3
-9 -9 0 -102 -116 -101 -126 0 -3 -9 -14 -20 -23 -12 -10 -21 -23 -21 -28 0
-6 -9 -18 -20 -28 -11 -10 -20 -22 -20 -26 0 -4 -17 -34 -38 -66 -40 -60 -56
-93 -54 -106 1 -4 -2 -7 -7 -7 -6 0 -54 -94 -66 -130 -1 -3 -4 -12 -8 -20 -3
-8 -15 -44 -27 -80 -12 -36 -25 -72 -28 -80 -3 -8 -6 -24 -8 -35 -3 -24 -12
-60 -14 -60 -2 0 -6 -20 -14 -65 -4 -19 -9 -43 -12 -54 -16 -51 -26 -447 -13
-476 4 -8 10 -38 13 -65 7 -63 15 -106 22 -125 8 -21 17 -62 18 -82 0 -10 4
-18 8 -18 4 0 8 -11 8 -24 0 -14 4 -27 9 -30 8 -5 25 -64 22 -78 0 -5 3 -8 7
-8 5 0 9 -6 9 -12 1 -20 47 -122 58 -130 6 -4 7 -8 3 -8 -4 0 6 -21 22 -46 16
-26 27 -51 24 -55 -3 -5 -2 -9 3 -9 14 0 43 -59 32 -65 -18 -12 -2 -70 44
-168 26 -54 47 -102 47 -107 0 -5 3 -10 8 -12 4 -1 22 -32 41 -68 49 -93 153
-264 163 -268 4 -2 8 -8 8 -14 0 -11 61 -101 73 -106 4 -2 7 -10 7 -17 0 -7 3
-15 8 -17 4 -1 27 -30 51 -63 25 -33 50 -64 55 -70 6 -5 29 -32 51 -60 57 -71
98 -116 201 -219 96 -96 122 -120 219 -201 33 -28 62 -52 65 -55 3 -3 22 -16
42 -30 21 -14 38 -28 38 -32 0 -5 6 -8 14 -8 8 0 16 -4 18 -9 2 -6 62 -46 133
-91 194 -123 397 -217 630 -295 82 -28 275 -73 360 -84 44 -6 91 -13 105 -15
93 -16 371 -22 470 -12 19 2 65 7 102 10 56 6 255 41 333 60 161 38 401 129
545 206 25 13 47 24 50 25 3 0 16 8 30 16 69 44 131 79 139 79 5 0 11 3 13 8
2 4 42 33 89 65 48 31 101 70 120 86 18 16 37 27 41 25 4 -3 8 -1 8 4 0 5 30
34 68 64 126 103 337 321 457 473 22 28 45 56 52 63 7 7 13 17 13 21 0 4 8 16
18 27 10 11 50 67 88 124 89 136 93 142 101 160 4 8 9 17 13 20 3 3 17 26 30
53 14 26 28 47 31 47 3 0 12 18 19 40 7 22 17 40 22 40 4 0 7 3 6 8 0 4 27 64
60 133 34 70 62 134 62 143 0 9 833 1083 1850 2386 l1850 2369 0 1650 0 1651
-2139 0 -2139 0 -14 -22z m-3239 -3343 c5 2 7 -7 5 -20 -1 -14 2 -25 7 -25 5
0 9 5 9 12 0 6 3 8 7 5 3 -4 13 -1 21 6 11 8 14 8 9 0 -4 -6 5 -21 20 -34 16
-12 20 -19 11 -16 -17 6 -35 -7 -21 -16 5 -2 3 -3 -2 -1 -6 1 -12 -8 -12 -19
-2 -21 27 -57 46 -57 5 0 12 -4 15 -9 4 -5 -3 -7 -14 -4 -11 3 -23 10 -26 15
-3 5 -13 3 -22 -4 -15 -11 -15 -11 -4 4 10 12 10 18 2 23 -7 4 -10 21 -8 37 3
19 0 32 -9 35 -11 4 -10 8 4 19 15 11 12 11 -20 0 -45 -15 -64 -31 -48 -40 6
-4 11 -1 11 6 0 16 37 21 45 7 4 -5 -2 -9 -12 -9 -11 0 -25 -6 -31 -12 -30
-30 -36 56 -7 102 6 10 10 11 13 2 2 -7 7 -10 11 -7z m-59 -64 c0 -5 -7 -12
-16 -15 -14 -5 -15 -4 -4 9 14 17 20 19 20 6z m-480 -45 c0 -3 -4 -8 -10 -11
-5 -3 -10 -1 -10 4 0 6 5 11 10 11 6 0 10 -2 10 -4z m645 -4 c-2 -3 0 -13 6
-24 10 -18 9 -19 -20 -3 -37 19 -40 36 -6 33 13 -1 22 -4 20 -6z"/>
<path d="M3248 7418 c10 -13 10 -17 0 -21 -9 -4 -9 -6 -1 -6 20 -2 24 16 5 30
-15 13 -16 12 -4 -3z"/>
<path d="M3316 7381 c-4 -5 -2 -12 3 -15 5 -4 12 -2 15 3 4 5 2 12 -3 15 -5 4
-12 2 -15 -3z"/>
<path d="M3340 7316 c0 -2 7 -7 16 -10 8 -3 12 -2 9 4 -6 10 -25 14 -25 6z"/>
<path d="M3046 7546 c3 -9 11 -14 17 -13 7 1 11 -6 10 -17 -1 -12 2 -15 9 -8
12 12 4 28 -22 42 -16 8 -18 8 -14 -4z"/>
<path d="M3166 7523 c-4 -9 -2 -21 4 -27 8 -8 9 -6 4 8 -5 13 -4 17 4 12 8 -5
10 -2 6 8 -8 20 -10 20 -18 -1z"/>
<path d="M3105 7519 c-4 -6 -5 -12 -2 -15 2 -3 7 2 10 11 7 17 1 20 -8 4z"/>
<path d="M3253 7485 c0 -8 4 -12 9 -9 5 3 6 10 3 15 -9 13 -12 11 -12 -6z"/>
<path d="M2904 7430 c0 -11 5 -21 11 -21 16 -1 17 17 2 30 -12 9 -14 7 -13 -9z"/>
<path d="M3180 7436 c0 -2 7 -6 15 -10 8 -3 15 -1 15 4 0 6 -7 10 -15 10 -8 0
-15 -2 -15 -4z"/>
<path d="M2830 7418 c0 -11 12 -10 30 2 12 7 10 9 -8 7 -12 0 -22 -5 -22 -9z"/>
<path d="M3470 7379 c0 -5 5 -7 10 -4 6 3 10 8 10 11 0 2 -4 4 -10 4 -5 0 -10
-5 -10 -11z"/>
<path d="M3724 7369 c-3 -6 -2 -15 3 -20 5 -5 9 -1 9 11 0 23 -2 24 -12 9z"/>
<path d="M3390 7363 c0 -6 5 -15 11 -18 6 -4 8 -13 5 -21 -3 -7 -1 -16 4 -19
5 -3 7 -12 3 -21 -3 -9 0 -14 8 -12 7 2 13 -2 14 -9 0 -6 4 -15 9 -20 5 -4 6
-3 2 4 -3 6 -2 14 4 18 5 3 10 2 10 -4 0 -6 8 -7 18 -4 14 6 15 4 5 -8 -9 -12
-5 -22 23 -54 18 -22 31 -32 28 -23 -5 14 -1 16 16 13 22 -4 22 -4 5 15 -17
19 -17 21 1 42 10 12 14 18 8 15 -15 -9 -24 15 -18 47 2 15 0 26 -6 26 -6 0
-9 -4 -5 -9 3 -5 1 -12 -5 -16 -6 -4 -7 -11 -4 -17 4 -6 0 -15 -7 -20 -11 -8
-10 -9 3 -5 20 7 31 -16 15 -32 -13 -13 -28 -15 -24 -3 3 11 -46 82 -56 82 -5
0 -5 5 -1 11 5 8 1 8 -14 0 -27 -14 -39 -14 -24 1 14 14 16 32 3 23 -6 -3 -14
3 -20 12 -6 10 -11 13 -11 6z m75 -73 c10 -11 13 -20 7 -20 -7 0 -12 6 -12 13
0 9 -3 8 -9 -2 -6 -9 -11 -10 -15 -2 -4 6 -1 11 6 11 9 0 9 3 -2 10 -8 5 -10
10 -4 10 6 0 19 -9 29 -20z m33 -53 c-6 -7 24 -37 32 -32 5 3 11 2 14 -3 11
-18 -29 -7 -45 12 -15 18 -16 47 -2 32 2 -2 3 -6 1 -9z"/>
<path d="M3485 7360 c-2 -3 5 -6 15 -7 11 -1 22 2 24 5 3 4 -4 8 -15 8 -11 0
-22 -3 -24 -6z"/>
<path d="M3776 7353 c-6 -14 -5 -15 5 -6 7 7 10 15 7 18 -3 3 -9 -2 -12 -12z"/>
<path d="M3536 7352 c-3 -5 1 -9 9 -9 8 0 12 4 9 9 -3 4 -7 8 -9 8 -2 0 -6 -4
-9 -8z"/>
<path d="M3703 7335 c0 -8 4 -12 9 -9 5 3 6 10 3 15 -9 13 -12 11 -12 -6z"/>
<path d="M3647 7320 c-9 -11 -13 -20 -7 -20 5 0 13 6 17 14 4 7 15 16 23 19
13 5 13 6 0 6 -9 1 -23 -8 -33 -19z"/>
<path d="M3611 7314 c0 -11 3 -14 6 -6 3 7 2 16 -1 19 -3 4 -6 -2 -5 -13z"/>
<path d="M3676 7312 c6 -4 10 -15 9 -24 -2 -9 3 -25 9 -34 12 -16 13 -15 11 2
0 11 -4 25 -9 32 -4 7 -2 12 6 12 9 0 9 3 -2 10 -8 5 -19 10 -25 10 -6 0 -5
-3 1 -8z"/>
<path d="M3490 7299 c0 -5 5 -7 10 -4 6 3 10 8 10 11 0 2 -4 4 -10 4 -5 0 -10
-5 -10 -11z"/>
<path d="M3616 7282 c-2 -4 0 -14 6 -22 8 -12 9 -12 5 2 -3 9 -1 19 6 22 9 3
9 5 0 5 -6 1 -14 -3 -17 -7z"/>
<path d="M3646 7271 c-4 -5 -2 -12 4 -16 17 -10 11 -25 -7 -19 -14 5 -15 4 -4
-4 7 -5 10 -16 7 -23 -4 -8 -1 -7 6 3 10 11 19 13 30 7 11 -6 19 -5 24 2 4 8
3 9 -4 5 -7 -4 -12 -2 -12 4 0 6 -5 8 -12 4 -7 -5 -9 -2 -5 9 7 18 -18 44 -27
28z"/>
<path d="M3578 7241 c-15 -18 -15 -20 2 -36 14 -12 20 -13 26 -4 4 7 3 10 -3
6 -18 -11 -23 21 -7 38 9 8 12 15 7 15 -5 0 -16 -9 -25 -19z"/>
<path d="M3420 7226 c0 -2 7 -9 15 -16 12 -10 15 -10 15 4 0 9 -7 16 -15 16
-8 0 -15 -2 -15 -4z"/>
<path d="M3604 7178 c-10 -13 -15 -20 -10 -16 4 4 19 -5 33 -20 l25 -27 -21
29 c-16 22 -18 32 -10 42 6 8 9 14 7 14 -3 0 -13 -10 -24 -22z"/>
<path d="M3655 7190 c-3 -6 1 -7 9 -4 18 7 21 14 7 14 -6 0 -13 -4 -16 -10z"/>
<path d="M3447 7173 c-4 -3 -7 -11 -7 -17 0 -6 5 -5 12 2 6 6 9 14 7 17 -3 3
-9 2 -12 -2z"/>
<path d="M3507 7133 c3 -7 9 -11 13 -8 5 3 10 -1 13 -7 2 -8 8 -9 13 -4 5 5 4
11 -4 13 -6 3 -10 8 -8 12 3 4 -4 7 -14 7 -10 0 -16 -6 -13 -13z"/>
<path d="M3570 7079 c0 -5 5 -7 10 -4 6 3 10 8 10 11 0 2 -4 4 -10 4 -5 0 -10
-5 -10 -11z"/>
</g>
</svg>
